<svg width="43" height="42" viewBox="0 0 43 42" fill="none" xmlns="http://www.w3.org/2000/svg">
<circle cx="21.4458" cy="20.6141" r="20.6024" fill="#E8F7F4"/>
<path fill-rule="evenodd" clip-rule="evenodd" d="M27.3587 13.4847L28.575 14.701C28.8604 14.9863 29.0209 15.3732 29.021 15.7768C29.0212 16.1803 28.861 16.5674 28.5757 16.8528L26.7424 18.6858L27.6535 19.5969C27.9068 19.8501 27.9068 20.2608 27.6535 20.5141L24.9557 23.2119L23.9853 23.2257L24.0385 22.2947L26.2776 20.0555L25.8251 19.6029L17.1834 28.2429H13.8153V24.874L25.2069 13.4847C25.4922 13.1994 25.8792 13.0391 26.2828 13.0391C26.6863 13.0391 27.0733 13.1994 27.3587 13.4847ZM27.493 15.7762L25.6628 17.6061L24.9557 16.8991L24.0385 17.8163L24.7454 18.5233L16.5516 26.716H15.3414V25.5051L26.2828 14.5652L27.493 15.7762ZM27.5502 26.7152V28.2413H18.7629L20.289 26.7152H27.5502Z" fill="#52C5A9"/>
</svg>
